***************************** TPB IS BENEDICTION TO ME ****************************


Screen Link :---

 
http://www.shotpix.com/images/14044015742700094994.jpg


General Info :---

Format                           : Matroska
File size                        : 101 MiB
Duration                         : 30mn 32s
Overall bit rate                 : 464 Kbps
Movie name                       : P
Encoded date                     : UTC 2011-06-17 21:50:54
Writing application              : mkvmerge v4.6.0 (\\\'Still Crazy After All These Years\\\') built on Mar 10 2011 02:50:32
Writing library                  : libebml v1.2.0 + libmatroska v1.1.0

Video
ID                               : 1
Format                           : AVC
Format/Info                      : Advanced Video Codec
Format profile                   : High@L4.0
Format settings, CABAC           : Yes
Format settings, ReFrames        : 3 frames
Format settings, GOP             : M=4, N=20
Codec ID                         : V_MPEG4/ISO/AVC
Duration                         : 30mn 32s
Bit rate mode                    : Variable
Bit rate                         : 271 Kbps
Maximum bit rate                 : 25.0 Mbps
Width                            : 720 pixels
Height                           : 576 pixels
Display aspect ratio             : 16:9
Frame rate                       : 25.000 fps
Standard                         : PAL
Color space                      : YUV
Chroma subsampling               : 4:2:0
Bit depth                        : 8 bits
Scan type                        : Progressive
Bits/(Pixel*Frame)               : 0.026
Stream size                      : 57.4 MiB (57%)

Audio
ID                               : 2
Format                           : MPEG Audio
Format version                   : Version 1
Format profile                   : Layer 3
Codec ID                         : A_MPEG/L3
Codec ID/Hint                    : MP3
Duration                         : 30mn 32s
Bit rate mode                    : Constant
Bit rate                         : 192 Kbps
Channel(s)                       : 2 channels
Sampling rate                    : 48.0 KHz
Compression mode                 : Lossy
Stream size                      : 41.9 MiB (41%)


Star Cast :---

Director  : Jennifer Lyon Bell
Writer    : Jennifer Lyon Bell
Stars     : Alicia Whitsover, Steven McAlistair and Teri Vakaki 


Synopsis :---


Stage actors Mariah and Daniel play lovers every night, but their onstage romance lacks spark. One slow afternoon, they discover that today\\\'s matinée performance will make or break both their careers. Daniel wants to make big changes, and Mariah starts to wonder: are Daniel\\\'s suggestions reasonable? Or has he lost track of the boundary between actor and character? Rushed to the stage, in front of a live audience, they must figure it out together. 




***************************** TPB IS BENEDICTION TO ME ****************************



